<svg id="Layer_1" data-name="Layer 1" xmlns="http://www.w3.org/2000/svg" viewBox="0 0 1366 768"><defs><style>.cls-1{fill:#3d56f5;}.cls-2{font-size:90.1px;font-family:Consolas-Bold, Consolas;font-weight:700;}</style></defs><title>Untitled-3</title><path class="cls-1" d="M615,553.49c-89.17,0-165.23-66.67-175.26-152.65L315.05,389.43,287,358.56H440.16c8.68-64.3,54.26-119,117.33-140.24l7.42-2.49V358.56h42.85a3.7,3.7,0,0,0,3.69-3.7V335a34.12,34.12,0,0,1,62-19.69l2.65,3.75L800.28,348.1l-141.52.06V365a51,51,0,0,1-55.64,50.81l-36.82-3.36a177.79,177.79,0,0,0,81.84,128.11l12.52,7.81-14.54,2.51A185.3,185.3,0,0,1,615,553.49ZM320.43,378.63l129.65,11.85.41,4.69C457.74,477.64,530,542.25,615,542.25c4.91,0,9.85-.22,14.77-.64a189.24,189.24,0,0,1-75.41-134.94l-.58-6.7,50.34,4.61a39.45,39.45,0,0,0,30.41-10.23,39.9,39.9,0,0,0,13-29.39v-28l55.55,0L669.39,329l-5.11-7.24A22.88,22.88,0,0,0,622.7,335v19.89a15,15,0,0,1-14.94,14.95H553.67V231.68C497,253.79,457,305.23,450.75,364.77l-.53,5H312.41Z"/><text class="cls-2" transform="translate(842.32 408.21)">Stork</text></svg>